<svg width="136" height="109" viewBox="0 0 136 109" fill="none" xmlns="http://www.w3.org/2000/svg">
<g id="Group 4">
<g id="Circle Ornament">
<path id="01" d="M59.946 1.832C59.946 2.84379 60.7416 3.664 61.723 3.664C62.7044 3.664 63.5 2.84379 63.5 1.832C63.5 0.820214 62.7044 0 61.723 0C60.7416 0 59.946 0.820214 59.946 1.832Z" fill="#CBCBCB"/>
<path id="02" d="M59.946 17.278C59.946 18.2898 60.7416 19.11 61.723 19.11C62.7044 19.11 63.5 18.2898 63.5 17.278C63.5 16.2663 62.7044 15.446 61.723 15.446C60.7416 15.446 59.946 16.2663 59.946 17.278Z" fill="#CBCBCB"/>
<path id="03" d="M59.946 32.7231C59.946 33.7349 60.7416 34.5551 61.723 34.5551C62.7044 34.5551 63.5 33.7349 63.5 32.7231C63.5 31.7113 62.7044 30.8911 61.723 30.8911C60.7416 30.8911 59.946 31.7113 59.946 32.7231Z" fill="#CBCBCB"/>
<path id="04" d="M59.946 48.1689C59.946 49.1807 60.7416 50.0009 61.723 50.0009C62.7044 50.0009 63.5 49.1807 63.5 48.1689C63.5 47.1571 62.7044 46.3369 61.723 46.3369C60.7416 46.3369 59.946 47.1571 59.946 48.1689Z" fill="#CBCBCB"/>
<path id="05" d="M44.96 1.832C44.96 2.84379 45.7556 3.664 46.737 3.664C47.7184 3.664 48.514 2.84379 48.514 1.832C48.514 0.820214 47.7184 0 46.737 0C45.7556 0 44.96 0.820214 44.96 1.832Z" fill="#CBCBCB"/>
<path id="06" d="M44.96 17.278C44.96 18.2898 45.7556 19.11 46.737 19.11C47.7184 19.11 48.514 18.2898 48.514 17.278C48.514 16.2663 47.7184 15.446 46.737 15.446C45.7556 15.446 44.96 16.2663 44.96 17.278Z" fill="#CBCBCB"/>
<path id="07" d="M44.96 32.7231C44.96 33.7349 45.7556 34.5551 46.737 34.5551C47.7184 34.5551 48.514 33.7349 48.514 32.7231C48.514 31.7113 47.7184 30.8911 46.737 30.8911C45.7556 30.8911 44.96 31.7113 44.96 32.7231Z" fill="#CBCBCB"/>
<path id="08" d="M44.96 48.1679C44.96 49.1797 45.7556 49.9999 46.737 49.9999C47.7184 49.9999 48.514 49.1797 48.514 48.1679C48.514 47.1562 47.7184 46.3359 46.737 46.3359C45.7556 46.3359 44.96 47.1562 44.96 48.1679Z" fill="#CBCBCB"/>
<path id="09" d="M29.973 1.832C29.973 2.84379 30.7686 3.664 31.75 3.664C32.7314 3.664 33.527 2.84379 33.527 1.832C33.527 0.820214 32.7314 0 31.75 0C30.7686 0 29.973 0.820214 29.973 1.832Z" fill="#CBCBCB"/>
<path id="10" d="M29.973 17.278C29.973 18.2898 30.7686 19.11 31.75 19.11C32.7314 19.11 33.527 18.2898 33.527 17.278C33.527 16.2663 32.7314 15.446 31.75 15.446C30.7686 15.446 29.973 16.2663 29.973 17.278Z" fill="#CBCBCB"/>
<path id="11" d="M29.973 32.7231C29.973 33.7349 30.7686 34.5551 31.75 34.5551C32.7314 34.5551 33.527 33.7349 33.527 32.7231C33.527 31.7113 32.7314 30.8911 31.75 30.8911C30.7686 30.8911 29.973 31.7113 29.973 32.7231Z" fill="#CBCBCB"/>
<path id="12" d="M29.973 48.1679C29.973 49.1797 30.7686 49.9999 31.75 49.9999C32.7314 49.9999 33.527 49.1797 33.527 48.1679C33.527 47.1562 32.7314 46.3359 31.75 46.3359C30.7686 46.3359 29.973 47.1562 29.973 48.1679Z" fill="#CBCBCB"/>
<path id="13" d="M14.987 1.832C14.987 2.84379 15.7826 3.664 16.764 3.664C17.7454 3.664 18.541 2.84379 18.541 1.832C18.541 0.820214 17.7454 0 16.764 0C15.7826 0 14.987 0.820214 14.987 1.832Z" fill="#CBCBCB"/>
<path id="14" d="M14.987 17.278C14.987 18.2898 15.7826 19.11 16.764 19.11C17.7454 19.11 18.541 18.2898 18.541 17.278C18.541 16.2663 17.7454 15.446 16.764 15.446C15.7826 15.446 14.987 16.2663 14.987 17.278Z" fill="#CBCBCB"/>
<path id="15" d="M14.987 32.7231C14.987 33.7349 15.7826 34.5551 16.764 34.5551C17.7454 34.5551 18.541 33.7349 18.541 32.7231C18.541 31.7113 17.7454 30.8911 16.764 30.8911C15.7826 30.8911 14.987 31.7113 14.987 32.7231Z" fill="#CBCBCB"/>
<path id="16" d="M14.987 48.1689C14.987 49.1807 15.7826 50.0009 16.764 50.0009C17.7454 50.0009 18.541 49.1807 18.541 48.1689C18.541 47.1571 17.7454 46.3369 16.764 46.3369C15.7826 46.3369 14.987 47.1571 14.987 48.1689Z" fill="#CBCBCB"/>
<path id="17" d="M-1.43051e-05 1.832C-1.43051e-05 2.84379 0.795576 3.664 1.77699 3.664C2.7584 3.664 3.55399 2.84379 3.55399 1.832C3.55399 0.820214 2.7584 0 1.77699 0C0.795576 0 -1.43051e-05 0.820214 -1.43051e-05 1.832Z" fill="#CBCBCB"/>
<path id="18" d="M-1.43051e-05 17.278C-1.43051e-05 18.2898 0.795576 19.11 1.77699 19.11C2.7584 19.11 3.55399 18.2898 3.55399 17.278C3.55399 16.2663 2.7584 15.446 1.77699 15.446C0.795576 15.446 -1.43051e-05 16.2663 -1.43051e-05 17.278Z" fill="#CBCBCB"/>
<path id="19" d="M-1.43051e-05 32.7231C-1.43051e-05 33.7349 0.795576 34.5551 1.77699 34.5551C2.7584 34.5551 3.55399 33.7349 3.55399 32.7231C3.55399 31.7113 2.7584 30.8911 1.77699 30.8911C0.795576 30.8911 -1.43051e-05 31.7113 -1.43051e-05 32.7231Z" fill="#CBCBCB"/>
<path id="20" d="M-1.43051e-05 48.1689C-1.43051e-05 49.1807 0.795576 50.0009 1.77699 50.0009C2.7584 50.0009 3.55399 49.1807 3.55399 48.1689C3.55399 47.1571 2.7584 46.3369 1.77699 46.3369C0.795576 46.3369 -1.43051e-05 47.1571 -1.43051e-05 48.1689Z" fill="#CBCBCB"/>
</g>
<g id="Circle Ornament_2">
<path id="01_2" d="M59.946 60.832C59.946 61.8438 60.7416 62.664 61.723 62.664C62.7044 62.664 63.5 61.8438 63.5 60.832C63.5 59.8202 62.7044 59 61.723 59C60.7416 59 59.946 59.8202 59.946 60.832Z" fill="#CBCBCB"/>
<path id="02_2" d="M59.946 76.278C59.946 77.2898 60.7416 78.11 61.723 78.11C62.7044 78.11 63.5 77.2898 63.5 76.278C63.5 75.2663 62.7044 74.446 61.723 74.446C60.7416 74.446 59.946 75.2663 59.946 76.278Z" fill="#CBCBCB"/>
<path id="03_2" d="M59.946 91.7231C59.946 92.7349 60.7416 93.5551 61.723 93.5551C62.7044 93.5551 63.5 92.7349 63.5 91.7231C63.5 90.7113 62.7044 89.8911 61.723 89.8911C60.7416 89.8911 59.946 90.7113 59.946 91.7231Z" fill="#CBCBCB"/>
<path id="04_2" d="M59.946 107.169C59.946 108.181 60.7416 109.001 61.723 109.001C62.7044 109.001 63.5 108.181 63.5 107.169C63.5 106.157 62.7044 105.337 61.723 105.337C60.7416 105.337 59.946 106.157 59.946 107.169Z" fill="#CBCBCB"/>
<path id="05_2" d="M44.96 60.832C44.96 61.8438 45.7556 62.664 46.737 62.664C47.7184 62.664 48.514 61.8438 48.514 60.832C48.514 59.8202 47.7184 59 46.737 59C45.7556 59 44.96 59.8202 44.96 60.832Z" fill="#CBCBCB"/>
<path id="06_2" d="M44.96 76.278C44.96 77.2898 45.7556 78.11 46.737 78.11C47.7184 78.11 48.514 77.2898 48.514 76.278C48.514 75.2663 47.7184 74.446 46.737 74.446C45.7556 74.446 44.96 75.2663 44.96 76.278Z" fill="#CBCBCB"/>
<path id="07_2" d="M44.96 91.7231C44.96 92.7349 45.7556 93.5551 46.737 93.5551C47.7184 93.5551 48.514 92.7349 48.514 91.7231C48.514 90.7113 47.7184 89.8911 46.737 89.8911C45.7556 89.8911 44.96 90.7113 44.96 91.7231Z" fill="#CBCBCB"/>
<path id="08_2" d="M44.96 107.168C44.96 108.18 45.7556 109 46.737 109C47.7184 109 48.514 108.18 48.514 107.168C48.514 106.156 47.7184 105.336 46.737 105.336C45.7556 105.336 44.96 106.156 44.96 107.168Z" fill="#CBCBCB"/>
<path id="09_2" d="M29.973 60.832C29.973 61.8438 30.7686 62.664 31.75 62.664C32.7314 62.664 33.527 61.8438 33.527 60.832C33.527 59.8202 32.7314 59 31.75 59C30.7686 59 29.973 59.8202 29.973 60.832Z" fill="#CBCBCB"/>
<path id="10_2" d="M29.973 76.278C29.973 77.2898 30.7686 78.11 31.75 78.11C32.7314 78.11 33.527 77.2898 33.527 76.278C33.527 75.2663 32.7314 74.446 31.75 74.446C30.7686 74.446 29.973 75.2663 29.973 76.278Z" fill="#CBCBCB"/>
<path id="11_2" d="M29.973 91.7231C29.973 92.7349 30.7686 93.5551 31.75 93.5551C32.7314 93.5551 33.527 92.7349 33.527 91.7231C33.527 90.7113 32.7314 89.8911 31.75 89.8911C30.7686 89.8911 29.973 90.7113 29.973 91.7231Z" fill="#CBCBCB"/>
<path id="12_2" d="M29.973 107.168C29.973 108.18 30.7686 109 31.75 109C32.7314 109 33.527 108.18 33.527 107.168C33.527 106.156 32.7314 105.336 31.75 105.336C30.7686 105.336 29.973 106.156 29.973 107.168Z" fill="#CBCBCB"/>
<path id="13_2" d="M14.987 60.832C14.987 61.8438 15.7826 62.664 16.764 62.664C17.7454 62.664 18.541 61.8438 18.541 60.832C18.541 59.8202 17.7454 59 16.764 59C15.7826 59 14.987 59.8202 14.987 60.832Z" fill="#CBCBCB"/>
<path id="14_2" d="M14.987 76.278C14.987 77.2898 15.7826 78.11 16.764 78.11C17.7454 78.11 18.541 77.2898 18.541 76.278C18.541 75.2663 17.7454 74.446 16.764 74.446C15.7826 74.446 14.987 75.2663 14.987 76.278Z" fill="#CBCBCB"/>
<path id="15_2" d="M14.987 91.7231C14.987 92.7349 15.7826 93.5551 16.764 93.5551C17.7454 93.5551 18.541 92.7349 18.541 91.7231C18.541 90.7113 17.7454 89.8911 16.764 89.8911C15.7826 89.8911 14.987 90.7113 14.987 91.7231Z" fill="#CBCBCB"/>
<path id="16_2" d="M14.987 107.169C14.987 108.181 15.7826 109.001 16.764 109.001C17.7454 109.001 18.541 108.181 18.541 107.169C18.541 106.157 17.7454 105.337 16.764 105.337C15.7826 105.337 14.987 106.157 14.987 107.169Z" fill="#CBCBCB"/>
<path id="17_2" d="M-1.43051e-05 60.832C-1.43051e-05 61.8438 0.795576 62.664 1.77699 62.664C2.7584 62.664 3.55399 61.8438 3.55399 60.832C3.55399 59.8202 2.7584 59 1.77699 59C0.795576 59 -1.43051e-05 59.8202 -1.43051e-05 60.832Z" fill="#CBCBCB"/>
<path id="18_2" d="M-1.43051e-05 76.278C-1.43051e-05 77.2898 0.795576 78.11 1.77699 78.11C2.7584 78.11 3.55399 77.2898 3.55399 76.278C3.55399 75.2663 2.7584 74.446 1.77699 74.446C0.795576 74.446 -1.43051e-05 75.2663 -1.43051e-05 76.278Z" fill="#CBCBCB"/>
<path id="19_2" d="M-1.43051e-05 91.7231C-1.43051e-05 92.7349 0.795576 93.5551 1.77699 93.5551C2.7584 93.5551 3.55399 92.7349 3.55399 91.7231C3.55399 90.7113 2.7584 89.8911 1.77699 89.8911C0.795576 89.8911 -1.43051e-05 90.7113 -1.43051e-05 91.7231Z" fill="#CBCBCB"/>
<path id="20_2" d="M-1.43051e-05 107.169C-1.43051e-05 108.181 0.795576 109.001 1.77699 109.001C2.7584 109.001 3.55399 108.181 3.55399 107.169C3.55399 106.157 2.7584 105.337 1.77699 105.337C0.795576 105.337 -1.43051e-05 106.157 -1.43051e-05 107.169Z" fill="#CBCBCB"/>
</g>
<g id="Circle Ornament_3">
<path id="01_3" d="M131.946 1.832C131.946 2.84379 132.742 3.664 133.723 3.664C134.704 3.664 135.5 2.84379 135.5 1.832C135.5 0.820214 134.704 0 133.723 0C132.742 0 131.946 0.820214 131.946 1.832Z" fill="#CBCBCB"/>
<path id="02_3" d="M131.946 17.278C131.946 18.2898 132.742 19.11 133.723 19.11C134.704 19.11 135.5 18.2898 135.5 17.278C135.5 16.2663 134.704 15.446 133.723 15.446C132.742 15.446 131.946 16.2663 131.946 17.278Z" fill="#CBCBCB"/>
<path id="03_3" d="M131.946 32.7231C131.946 33.7349 132.742 34.5551 133.723 34.5551C134.704 34.5551 135.5 33.7349 135.5 32.7231C135.5 31.7113 134.704 30.8911 133.723 30.8911C132.742 30.8911 131.946 31.7113 131.946 32.7231Z" fill="#CBCBCB"/>
<path id="04_3" d="M131.946 48.1689C131.946 49.1807 132.742 50.0009 133.723 50.0009C134.704 50.0009 135.5 49.1807 135.5 48.1689C135.5 47.1571 134.704 46.3369 133.723 46.3369C132.742 46.3369 131.946 47.1571 131.946 48.1689Z" fill="#CBCBCB"/>
<path id="05_3" d="M116.96 1.832C116.96 2.84379 117.756 3.664 118.737 3.664C119.718 3.664 120.514 2.84379 120.514 1.832C120.514 0.820214 119.718 0 118.737 0C117.756 0 116.96 0.820214 116.96 1.832Z" fill="#CBCBCB"/>
<path id="06_3" d="M116.96 17.278C116.96 18.2898 117.756 19.11 118.737 19.11C119.718 19.11 120.514 18.2898 120.514 17.278C120.514 16.2663 119.718 15.446 118.737 15.446C117.756 15.446 116.96 16.2663 116.96 17.278Z" fill="#CBCBCB"/>
<path id="07_3" d="M116.96 32.7231C116.96 33.7349 117.756 34.5551 118.737 34.5551C119.718 34.5551 120.514 33.7349 120.514 32.7231C120.514 31.7113 119.718 30.8911 118.737 30.8911C117.756 30.8911 116.96 31.7113 116.96 32.7231Z" fill="#CBCBCB"/>
<path id="08_3" d="M116.96 48.1679C116.96 49.1797 117.756 49.9999 118.737 49.9999C119.718 49.9999 120.514 49.1797 120.514 48.1679C120.514 47.1562 119.718 46.3359 118.737 46.3359C117.756 46.3359 116.96 47.1562 116.96 48.1679Z" fill="#CBCBCB"/>
<path id="09_3" d="M101.973 1.832C101.973 2.84379 102.769 3.664 103.75 3.664C104.731 3.664 105.527 2.84379 105.527 1.832C105.527 0.820214 104.731 0 103.75 0C102.769 0 101.973 0.820214 101.973 1.832Z" fill="#CBCBCB"/>
<path id="10_3" d="M101.973 17.278C101.973 18.2898 102.769 19.11 103.75 19.11C104.731 19.11 105.527 18.2898 105.527 17.278C105.527 16.2663 104.731 15.446 103.75 15.446C102.769 15.446 101.973 16.2663 101.973 17.278Z" fill="#CBCBCB"/>
<path id="11_3" d="M101.973 32.7231C101.973 33.7349 102.769 34.5551 103.75 34.5551C104.731 34.5551 105.527 33.7349 105.527 32.7231C105.527 31.7113 104.731 30.8911 103.75 30.8911C102.769 30.8911 101.973 31.7113 101.973 32.7231Z" fill="#CBCBCB"/>
<path id="12_3" d="M101.973 48.1679C101.973 49.1797 102.769 49.9999 103.75 49.9999C104.731 49.9999 105.527 49.1797 105.527 48.1679C105.527 47.1562 104.731 46.3359 103.75 46.3359C102.769 46.3359 101.973 47.1562 101.973 48.1679Z" fill="#CBCBCB"/>
<path id="13_3" d="M86.987 1.832C86.987 2.84379 87.7826 3.664 88.764 3.664C89.7454 3.664 90.541 2.84379 90.541 1.832C90.541 0.820214 89.7454 0 88.764 0C87.7826 0 86.987 0.820214 86.987 1.832Z" fill="#CBCBCB"/>
<path id="14_3" d="M86.987 17.278C86.987 18.2898 87.7826 19.11 88.764 19.11C89.7454 19.11 90.541 18.2898 90.541 17.278C90.541 16.2663 89.7454 15.446 88.764 15.446C87.7826 15.446 86.987 16.2663 86.987 17.278Z" fill="#CBCBCB"/>
<path id="15_3" d="M86.987 32.7231C86.987 33.7349 87.7826 34.5551 88.764 34.5551C89.7454 34.5551 90.541 33.7349 90.541 32.7231C90.541 31.7113 89.7454 30.8911 88.764 30.8911C87.7826 30.8911 86.987 31.7113 86.987 32.7231Z" fill="#CBCBCB"/>
<path id="16_3" d="M86.987 48.1689C86.987 49.1807 87.7826 50.0009 88.764 50.0009C89.7454 50.0009 90.541 49.1807 90.541 48.1689C90.541 47.1571 89.7454 46.3369 88.764 46.3369C87.7826 46.3369 86.987 47.1571 86.987 48.1689Z" fill="#CBCBCB"/>
<path id="17_3" d="M72 1.832C72 2.84379 72.7956 3.664 73.777 3.664C74.7584 3.664 75.554 2.84379 75.554 1.832C75.554 0.820214 74.7584 0 73.777 0C72.7956 0 72 0.820214 72 1.832Z" fill="#CBCBCB"/>
<path id="18_3" d="M72 17.278C72 18.2898 72.7956 19.11 73.777 19.11C74.7584 19.11 75.554 18.2898 75.554 17.278C75.554 16.2663 74.7584 15.446 73.777 15.446C72.7956 15.446 72 16.2663 72 17.278Z" fill="#CBCBCB"/>
<path id="19_3" d="M72 32.7231C72 33.7349 72.7956 34.5551 73.777 34.5551C74.7584 34.5551 75.554 33.7349 75.554 32.7231C75.554 31.7113 74.7584 30.8911 73.777 30.8911C72.7956 30.8911 72 31.7113 72 32.7231Z" fill="#CBCBCB"/>
<path id="20_3" d="M72 48.1689C72 49.1807 72.7956 50.0009 73.777 50.0009C74.7584 50.0009 75.554 49.1807 75.554 48.1689C75.554 47.1571 74.7584 46.3369 73.777 46.3369C72.7956 46.3369 72 47.1571 72 48.1689Z" fill="#CBCBCB"/>
</g>
<g id="Circle Ornament_4">
<path id="01_4" d="M131.946 60.832C131.946 61.8438 132.742 62.664 133.723 62.664C134.704 62.664 135.5 61.8438 135.5 60.832C135.5 59.8202 134.704 59 133.723 59C132.742 59 131.946 59.8202 131.946 60.832Z" fill="#CBCBCB"/>
<path id="02_4" d="M131.946 76.278C131.946 77.2898 132.742 78.11 133.723 78.11C134.704 78.11 135.5 77.2898 135.5 76.278C135.5 75.2663 134.704 74.446 133.723 74.446C132.742 74.446 131.946 75.2663 131.946 76.278Z" fill="#CBCBCB"/>
<path id="03_4" d="M131.946 91.7231C131.946 92.7349 132.742 93.5551 133.723 93.5551C134.704 93.5551 135.5 92.7349 135.5 91.7231C135.5 90.7113 134.704 89.8911 133.723 89.8911C132.742 89.8911 131.946 90.7113 131.946 91.7231Z" fill="#CBCBCB"/>
<path id="04_4" d="M131.946 107.169C131.946 108.181 132.742 109.001 133.723 109.001C134.704 109.001 135.5 108.181 135.5 107.169C135.5 106.157 134.704 105.337 133.723 105.337C132.742 105.337 131.946 106.157 131.946 107.169Z" fill="#CBCBCB"/>
<path id="05_4" d="M116.96 60.832C116.96 61.8438 117.756 62.664 118.737 62.664C119.718 62.664 120.514 61.8438 120.514 60.832C120.514 59.8202 119.718 59 118.737 59C117.756 59 116.96 59.8202 116.96 60.832Z" fill="#CBCBCB"/>
<path id="06_4" d="M116.96 76.278C116.96 77.2898 117.756 78.11 118.737 78.11C119.718 78.11 120.514 77.2898 120.514 76.278C120.514 75.2663 119.718 74.446 118.737 74.446C117.756 74.446 116.96 75.2663 116.96 76.278Z" fill="#CBCBCB"/>
<path id="07_4" d="M116.96 91.7231C116.96 92.7349 117.756 93.5551 118.737 93.5551C119.718 93.5551 120.514 92.7349 120.514 91.7231C120.514 90.7113 119.718 89.8911 118.737 89.8911C117.756 89.8911 116.96 90.7113 116.96 91.7231Z" fill="#CBCBCB"/>
<path id="08_4" d="M116.96 107.168C116.96 108.18 117.756 109 118.737 109C119.718 109 120.514 108.18 120.514 107.168C120.514 106.156 119.718 105.336 118.737 105.336C117.756 105.336 116.96 106.156 116.96 107.168Z" fill="#CBCBCB"/>
<path id="09_4" d="M101.973 60.832C101.973 61.8438 102.769 62.664 103.75 62.664C104.731 62.664 105.527 61.8438 105.527 60.832C105.527 59.8202 104.731 59 103.75 59C102.769 59 101.973 59.8202 101.973 60.832Z" fill="#CBCBCB"/>
<path id="10_4" d="M101.973 76.278C101.973 77.2898 102.769 78.11 103.75 78.11C104.731 78.11 105.527 77.2898 105.527 76.278C105.527 75.2663 104.731 74.446 103.75 74.446C102.769 74.446 101.973 75.2663 101.973 76.278Z" fill="#CBCBCB"/>
<path id="11_4" d="M101.973 91.7231C101.973 92.7349 102.769 93.5551 103.75 93.5551C104.731 93.5551 105.527 92.7349 105.527 91.7231C105.527 90.7113 104.731 89.8911 103.75 89.8911C102.769 89.8911 101.973 90.7113 101.973 91.7231Z" fill="#CBCBCB"/>
<path id="12_4" d="M101.973 107.168C101.973 108.18 102.769 109 103.75 109C104.731 109 105.527 108.18 105.527 107.168C105.527 106.156 104.731 105.336 103.75 105.336C102.769 105.336 101.973 106.156 101.973 107.168Z" fill="#CBCBCB"/>
<path id="13_4" d="M86.987 60.832C86.987 61.8438 87.7826 62.664 88.764 62.664C89.7454 62.664 90.541 61.8438 90.541 60.832C90.541 59.8202 89.7454 59 88.764 59C87.7826 59 86.987 59.8202 86.987 60.832Z" fill="#CBCBCB"/>
<path id="14_4" d="M86.987 76.278C86.987 77.2898 87.7826 78.11 88.764 78.11C89.7454 78.11 90.541 77.2898 90.541 76.278C90.541 75.2663 89.7454 74.446 88.764 74.446C87.7826 74.446 86.987 75.2663 86.987 76.278Z" fill="#CBCBCB"/>
<path id="15_4" d="M86.987 91.7231C86.987 92.7349 87.7826 93.5551 88.764 93.5551C89.7454 93.5551 90.541 92.7349 90.541 91.7231C90.541 90.7113 89.7454 89.8911 88.764 89.8911C87.7826 89.8911 86.987 90.7113 86.987 91.7231Z" fill="#CBCBCB"/>
<path id="16_4" d="M86.987 107.169C86.987 108.181 87.7826 109.001 88.764 109.001C89.7454 109.001 90.541 108.181 90.541 107.169C90.541 106.157 89.7454 105.337 88.764 105.337C87.7826 105.337 86.987 106.157 86.987 107.169Z" fill="#CBCBCB"/>
<path id="17_4" d="M72 60.832C72 61.8438 72.7956 62.664 73.777 62.664C74.7584 62.664 75.554 61.8438 75.554 60.832C75.554 59.8202 74.7584 59 73.777 59C72.7956 59 72 59.8202 72 60.832Z" fill="#CBCBCB"/>
<path id="18_4" d="M72 76.278C72 77.2898 72.7956 78.11 73.777 78.11C74.7584 78.11 75.554 77.2898 75.554 76.278C75.554 75.2663 74.7584 74.446 73.777 74.446C72.7956 74.446 72 75.2663 72 76.278Z" fill="#CBCBCB"/>
<path id="19_4" d="M72 91.7231C72 92.7349 72.7956 93.5551 73.777 93.5551C74.7584 93.5551 75.554 92.7349 75.554 91.7231C75.554 90.7113 74.7584 89.8911 73.777 89.8911C72.7956 89.8911 72 90.7113 72 91.7231Z" fill="#CBCBCB"/>
<path id="20_4" d="M72 107.169C72 108.181 72.7956 109.001 73.777 109.001C74.7584 109.001 75.554 108.181 75.554 107.169C75.554 106.157 74.7584 105.337 73.777 105.337C72.7956 105.337 72 106.157 72 107.169Z" fill="#CBCBCB"/>
</g>
</g>
</svg>
