<svg width="63" height="64" viewBox="0 0 63 64" fill="none" xmlns="http://www.w3.org/2000/svg">
<g id="Group 3">
<path id="Path 53" d="M32.921 31.964V31.303L22.502 31.964H32.921ZM32.921 31.303L22.502 31.964V31.381L32.921 31.307V31.303Z" fill="#E5A127"/>
<path id="Path 54" d="M22.501 31.377V31.964L20.96 31.524L22.501 31.377ZM22.501 31.964L20.96 31.524L21.033 32.037L22.501 31.964ZM20.96 31.524L21.033 32.037L19.493 31.964L20.96 31.524ZM21.033 32.037L19.493 31.964L19.639 32.331L21.033 32.037ZM19.493 31.964L19.639 32.331L18.099 32.625L19.493 31.964ZM19.639 32.331L18.099 32.625L18.245 32.918L19.639 32.331ZM18.099 32.625L18.245 32.918L16.851 33.505L18.099 32.625ZM18.245 32.918L16.851 33.505L16.997 33.652L18.245 32.918ZM16.851 33.505L16.997 33.652L15.75 34.532L16.85 33.504L16.851 33.505ZM16.997 33.652L15.75 34.532L15.896 34.679L16.997 33.652ZM15.75 34.532L15.896 34.679L14.869 35.779L15.75 34.532ZM15.896 34.679L14.869 35.779H14.942L15.896 34.679ZM14.869 35.779H14.942L14.209 37.1L14.869 35.779Z" fill="#E5A127"/>
<path id="Path 55" d="M24.258 54.781L22.718 54.194L21.104 53.827L19.49 53.606L17.876 53.679L16.188 53.899L14.648 54.339L13.107 54.926L11.64 55.807M11.567 55.733L12.154 54.266L12.447 52.725L12.667 51.185V49.571L12.447 48.031M10.391 20.881L11.271 19.487L11.858 17.947L12.372 16.406L12.592 14.792L12.665 13.105L12.519 11.491L12.152 9.87698L11.565 8.33699M11.638 8.18999L13.032 8.99699L14.499 9.65698L15.967 10.097L17.507 10.317L19.121 10.391M11.121 24.552L12.294 23.158L13.322 21.69L14.128 20.076L14.789 18.315L15.229 16.554L15.449 14.792L15.523 12.958M15.523 12.885L16.99 13.105M14.862 46.049L14.275 44.288L13.468 42.674L12.44 41.134L11.34 39.74L10.019 38.419L8.55203 37.319L7.01102 36.365M7.01102 36.292L7.892 35.192M16.916 50.967L15.669 49.867L14.275 48.987L12.808 48.253L11.194 47.666L9.57999 47.372L7.96603 47.225L6.35202 47.298L4.66403 47.591M4.66403 47.444L5.69101 46.271L6.49802 44.95L7.23203 43.483L7.74503 42.016L8.11203 40.475M20.658 50.894L19.485 49.5L18.164 48.179L16.697 47.079L15.157 46.198L13.469 45.392L11.708 44.878L9.94699 44.511M9.94699 44.438L10.46 43.044M7.89304 28.81L8.186 27.196L8.259 25.508L8.11203 23.894L7.81802 22.28L7.30502 20.666L6.64499 19.199L5.69101 17.805L4.66403 16.558M9.80002 31.966L10.387 30.278L10.827 28.517L11.047 26.683L11.121 24.849L10.901 23.088L10.534 21.254L9.94699 19.566M8.186 37.102L7.897 35.481L7.45602 33.867L6.79599 32.327L5.91599 30.933L4.88803 29.686L3.715 28.512L2.46799 27.485L1.00101 26.678M11.126 39.445V37.611L10.906 35.776L10.539 34.016L9.879 32.255L9.07199 30.641L8.11801 29.1L7.01804 27.706M11.347 44.806L10.54 43.339L9.58603 42.018L8.41202 40.844L7.16501 39.817L5.69803 38.937L4.23099 38.276L2.69003 37.763L1.07602 37.47M1.00302 37.323L2.397 36.516L3.64401 35.636L4.74399 34.536L5.77103 33.289L6.57803 31.968M4.668 16.481L6.28201 16.774L7.82199 16.847L9.36301 16.774L10.903 16.481L12.443 15.967M1.07101 26.606L2.61099 26.312L4.07901 25.872L5.54599 25.211L6.86703 24.404L8.11398 23.45M7.01401 27.705L8.26102 26.971M9.94901 19.561L11.343 19.267M32.476 55.881H30.789L29.175 56.101L27.561 56.468L26.021 57.055L24.626 57.862L23.232 58.816L22.058 59.916L20.958 61.163M20.885 61.163V59.549L20.664 58.008L20.298 56.468L19.711 55.001L19.051 53.606M35.266 53.46L33.506 53.166L31.672 53.019L29.837 53.092L28.076 53.386L26.315 53.899L24.627 54.56L23.013 55.514M23.013 55.441L22.5 54.12M40.549 54.12L39.008 54.634L37.541 55.367L36.147 56.321L34.9 57.421L33.8 58.595L32.92 59.989L32.113 61.456L31.526 62.997L30.939 61.529L30.279 60.135L29.398 58.814L28.371 57.641L27.198 56.541M42.386 50.818L40.552 51.185L38.791 51.625L37.103 52.359L35.563 53.239L34.095 54.339L32.701 55.586L31.527 56.907L30.573 55.807M47.596 49.717L46.349 50.744L45.175 51.991L44.221 53.312L43.414 54.706L42.827 56.246L42.387 57.86L42.167 59.474V61.161M42.094 61.161L41.067 59.988L39.893 58.888L38.646 58.008L37.251 57.201L35.857 56.614M48.183 46.048L46.643 46.928L45.102 48.028L43.781 49.275L42.607 50.595L41.58 52.136L40.7 53.75L40.04 55.438M40.04 55.511L38.793 54.777M52.733 43.185L51.853 44.579L51.266 46.119L50.753 47.66L50.533 49.274L50.46 50.961L50.607 52.575L50.974 54.189L51.561 55.729M51.415 55.803L50.021 54.996L48.553 54.335L47.086 53.895L45.545 53.675L43.931 53.602" stroke="#E5A127" stroke-width="0.216" stroke-linecap="round" stroke-linejoin="bevel"/>
<path id="Path 56" d="M32.917 31.303V31.964L40.18 31.303H32.917ZM32.917 31.964L40.18 31.303V31.89L32.917 31.963V31.964Z" fill="#E5A127"/>
<path id="Path 57" d="M40.1811 31.89V31.303L41.281 31.964L40.1811 31.891V31.89ZM40.1811 31.303L41.281 31.964L41.1341 31.084L40.18 31.304L40.1811 31.303ZM41.281 31.964L41.1341 31.084L42.3811 31.744L41.281 31.964ZM41.1341 31.084L42.3811 31.744L41.9411 30.717L41.1341 31.084ZM42.3811 31.744L41.9411 30.717L43.4081 31.378L42.3811 31.744ZM41.9411 30.717L43.4081 31.378L42.748 30.204L41.9411 30.717ZM43.4081 31.378L42.748 30.204L44.435 30.717L43.4081 31.378ZM42.748 30.204L44.435 30.717L43.3351 29.617L42.748 30.204ZM44.435 30.717L43.3351 29.617L45.3161 29.984L44.435 30.717ZM43.3351 29.617L45.3161 29.984L43.8481 28.884L43.3351 29.617ZM45.3161 29.984L43.8481 28.884L46.0481 29.031L45.315 29.985L45.3161 29.984ZM43.8481 28.884L46.0481 29.031L44.141 28.077L43.847 28.884H43.8481ZM46.0481 29.031L44.141 28.077L46.563 27.931L46.0481 29.031ZM44.141 28.077L46.563 27.931L44.3631 27.27L44.143 28.077H44.141ZM46.563 27.931L44.3631 27.27L46.9311 26.757L46.565 27.931H46.563ZM44.3631 27.27L46.9311 26.757L44.3631 26.537V27.27Z" fill="#E5A127"/>
<path id="Path 58" d="M46.93 26.681L44.362 26.534L46.7101 25.434L46.93 26.681ZM44.362 26.534L46.7101 25.434L44.435 25.801L44.362 26.534ZM46.7101 25.434L44.435 25.801L46.2701 24.333L46.7101 25.433V25.434ZM44.435 25.801L46.2701 24.333L44.435 24.994V25.801ZM46.2701 24.333L44.435 24.994L45.682 23.306L46.269 24.333H46.2701ZM44.435 24.994L45.682 23.306L44.2151 24.186L44.435 24.994ZM45.682 23.306L44.2151 24.186L44.876 22.498L45.683 23.305L45.682 23.306ZM44.2151 24.186L44.876 22.498L43.776 23.452L44.216 24.185L44.2151 24.186ZM44.876 22.498L43.776 23.452L43.923 21.838L44.877 22.498H44.876ZM43.776 23.452L43.923 21.838L43.2621 22.792L43.7751 23.453L43.776 23.452ZM43.923 21.838L43.2621 22.792L42.8951 21.398L43.923 21.838ZM43.2621 22.792L42.8951 21.398L42.528 22.205L43.2621 22.792ZM42.8951 21.398L42.528 22.205L41.868 21.177L42.8951 21.397V21.398ZM42.528 22.205L41.868 21.177L41.721 21.764L42.528 22.205ZM41.868 21.177L41.721 21.764L40.694 21.103L41.868 21.177ZM41.721 21.764L40.694 21.103L40.7671 21.69L41.721 21.764ZM40.694 21.103L40.7671 21.69L39.594 21.397L40.694 21.103ZM40.7671 21.69L39.594 21.397L39.8141 21.91L40.7671 21.69ZM39.594 21.397L39.8141 21.91L38.714 21.69L39.594 21.397ZM39.8141 21.91L38.714 21.69L39.227 22.424L39.8141 21.911V21.91ZM38.714 21.69L39.227 22.424L37.906 22.204L38.714 21.69ZM39.227 22.424L37.906 22.204L38.713 22.937L39.227 22.424ZM37.906 22.204L38.713 22.937H37.245L37.906 22.204ZM38.713 22.937H37.245L38.345 23.598L38.712 22.937H38.713ZM37.245 22.937L38.345 23.598L36.731 23.745L37.245 22.937ZM38.345 23.598L36.731 23.745L38.125 24.259L38.345 23.598ZM36.731 23.745L38.125 24.259L36.364 24.699L36.731 23.745ZM38.125 24.259L36.364 24.699L38.125 24.992V24.261V24.259ZM36.364 24.699L38.125 24.992L36.218 25.726L36.364 24.699ZM38.125 24.992L36.218 25.726L38.199 25.579L38.125 24.992ZM36.218 25.726L38.199 25.579L36.511 26.826L36.218 25.726ZM38.199 25.579L36.511 26.826L38.199 26.313V25.579ZM36.511 26.826L38.199 26.313L37.099 27.853L36.5121 26.826H36.511ZM38.199 26.313L37.099 27.853L38.42 26.973L38.2 26.313H38.199ZM37.099 27.853L38.42 26.973L37.907 28.587L37.099 27.853ZM38.42 26.973L37.907 28.587L38.8611 27.56L38.4211 26.973H38.42ZM37.907 28.587L38.8611 27.56L38.9341 29.1L37.907 28.587ZM38.8611 27.56L38.9341 29.1L39.3741 28L38.8611 27.56ZM38.9341 29.1L39.3741 28L39.961 29.321L38.933 29.101L38.9341 29.1ZM39.3741 28L39.961 29.321L40.107 28.367L39.373 28H39.3741ZM39.961 29.321L40.107 28.367L40.987 29.247L39.961 29.321ZM40.107 28.367L40.987 29.247L40.914 28.441L40.107 28.368V28.367ZM40.987 29.247L40.914 28.441L41.941 28.881L40.987 29.247ZM40.914 28.441L41.941 28.881L41.721 28.368L40.914 28.441ZM41.941 28.881L41.721 28.368H42.7491L41.942 28.881H41.941ZM41.721 28.368H42.7491L42.529 28.001L41.721 28.368ZM42.7491 28.368L42.529 28.001L43.336 27.634L42.7491 28.368ZM42.529 28.001L43.336 27.634L43.1891 27.487L42.528 28L42.529 28.001ZM43.336 27.634L43.1891 27.487L43.7021 26.753L43.3351 27.633L43.336 27.634Z" fill="#E5A127"/>
<path id="Path 59" d="M42.382 13.181L43.5561 14.575L44.877 15.896L46.344 16.996L47.885 17.876L49.5721 18.682L51.333 19.196L53.095 19.563L52.581 20.957M38.787 9.21698L40.3271 9.80399L41.941 10.171L43.555 10.391L45.169 10.317L46.857 10.097L48.398 9.65698L49.938 9.06999L51.406 8.18999M51.553 8.33699L50.966 9.80399L50.672 11.345L50.4521 12.886V14.5L50.672 16.04M35.263 10.54L36.878 11.494L38.492 12.228L40.253 12.815L42.087 13.109L43.922 13.256L45.682 13.183L47.5171 12.89M47.5901 12.963V14.431" stroke="#E5A127" stroke-width="0.216" stroke-linecap="round" stroke-linejoin="bevel"/>
<g id="Path 60">
<path d="M45.977 19.343L45.83 18.83L44.876 19.343H45.977ZM45.83 18.83L44.876 19.343L45.463 18.389L45.83 18.83ZM44.876 19.343L45.463 18.389L44.876 18.243V19.343Z" fill="#E5A127"/>
<path d="M45.83 18.83L45.977 19.343H44.876M45.83 18.83L44.876 19.343M45.83 18.83L45.463 18.389M44.876 19.343L45.463 18.389M44.876 19.343V18.243L45.463 18.389" stroke="#E5A127" stroke-width="0.216" stroke-linecap="round" stroke-linejoin="bevel"/>
</g>
<g id="Path 61">
<path d="M44.8761 18.243L44.289 18.389L44.8761 19.343V18.243ZM44.289 18.389L44.8761 19.343L43.8481 18.83L44.289 18.39V18.389ZM44.8761 19.343L43.8481 18.83L43.701 19.343H44.8761Z" fill="#E5A127"/>
<path d="M44.289 18.389L44.8761 18.243V19.343M44.289 18.389L44.8761 19.343M44.289 18.389V18.39L43.8481 18.83M44.8761 19.343L43.8481 18.83M44.8761 19.343H43.701L43.8481 18.83" stroke="#E5A127" stroke-width="0.216" stroke-linecap="round" stroke-linejoin="bevel"/>
</g>
<g id="Path 62">
<path d="M43.7021 19.343L43.849 19.93L44.877 19.343H43.7021ZM43.849 19.93L44.877 19.343L44.29 20.371L43.849 19.93ZM44.877 19.343L44.29 20.371L44.877 20.518V19.344V19.343Z" fill="#E5A127"/>
<path d="M43.849 19.93L43.7021 19.343H44.877M43.849 19.93L44.877 19.343M43.849 19.93L44.29 20.371M44.877 19.343L44.29 20.371M44.877 19.343V19.344V20.518L44.29 20.371" stroke="#E5A127" stroke-width="0.216" stroke-linecap="round" stroke-linejoin="bevel"/>
</g>
<g id="Path 63">
<path d="M44.877 20.517L45.464 20.37L44.877 19.342V20.517ZM45.464 20.37L44.877 19.342L45.831 19.929L45.464 20.37ZM44.877 19.342L45.831 19.929L45.9781 19.342H44.877Z" fill="#E5A127"/>
<path d="M45.464 20.37L44.877 20.517V19.342M45.464 20.37L44.877 19.342M45.464 20.37L45.831 19.929M44.877 19.342L45.831 19.929M44.877 19.342H45.9781L45.831 19.929" stroke="#E5A127" stroke-width="0.216" stroke-linecap="round" stroke-linejoin="bevel"/>
</g>
<path id="Path 64" d="M31.449 28.588L28.954 28.001L29.174 38.786L31.448 28.586L31.449 28.588ZM28.954 28.001L29.174 38.786L26.679 38.199L28.953 27.999L28.954 28.001Z" fill="#E5A127"/>
<path id="Path 65" d="M21.4701 43.703V43.116L22.791 43.777L21.4701 43.703ZM21.4701 43.116L22.791 43.777L22.644 42.897L21.4701 43.116ZM22.791 43.777L22.644 42.897L24.185 43.557L22.79 43.777H22.791ZM22.644 42.897L24.185 43.557L23.745 42.457L22.6451 42.897H22.644ZM24.185 43.557L23.745 42.457L25.432 43.117L24.185 43.557ZM23.745 42.457L25.432 43.117L24.699 41.87L23.745 42.457ZM25.432 43.117L24.699 41.87L26.68 42.31L25.432 43.117ZM24.699 41.87L26.68 42.31L25.506 41.063L24.699 41.87ZM26.68 42.31L25.506 41.063L27.706 41.357L26.68 42.31ZM25.506 41.063L27.706 41.357L26.092 40.183L25.506 41.063ZM27.706 41.357L26.092 40.183L28.586 40.11L27.706 41.357ZM26.092 40.183L28.586 40.11L26.532 39.229L26.092 40.183ZM28.586 40.11L26.532 39.229L29.173 38.789L28.586 40.11ZM26.532 39.229L29.173 38.789L26.678 38.202L26.532 39.229Z" fill="#E5A127"/>
<path id="Path 66" d="M19.415 43.042L19.709 42.529L20.37 43.483L19.416 43.043L19.415 43.042ZM19.709 42.529L20.37 43.483L20.59 42.97L19.71 42.53L19.709 42.529ZM20.37 43.483L20.59 42.97L21.47 43.703L20.37 43.483ZM20.59 42.97L21.47 43.703V43.116L20.59 42.969V42.97Z" fill="#E5A127"/>
<path id="Path 67" d="M17.509 36.659L19.197 37.686H17.142L17.509 36.659ZM19.197 37.686H17.142L18.83 38.273L19.197 37.686ZM17.142 37.686L18.83 38.273L16.996 38.786L17.142 37.686ZM18.83 38.273L16.996 38.786L18.537 38.933L18.83 38.272V38.273ZM16.996 38.786L18.537 38.933L17.069 39.813L16.996 38.785V38.786ZM18.537 38.933L17.069 39.813L18.463 39.666L18.537 38.933ZM17.069 39.813L18.463 39.666L17.363 40.84L17.069 39.813ZM18.463 39.666L17.363 40.84L18.537 40.473L18.463 39.666ZM17.363 40.84L18.537 40.473L17.876 41.72L17.363 40.84ZM18.537 40.473L17.876 41.72L18.756 41.207L18.536 40.473H18.537ZM17.876 41.72L18.756 41.207L18.61 42.454L17.876 41.72ZM18.756 41.207L18.61 42.454L19.123 41.941L18.756 41.207ZM18.61 42.454L19.123 41.941L19.416 43.041L18.61 42.454ZM19.123 41.941L19.416 43.041L19.71 42.528L19.123 41.941Z" fill="#E5A127"/>
<path id="Path 68" d="M22.571 34.752L22.498 35.339L21.691 34.606L22.571 34.753V34.752ZM22.498 35.339L21.691 34.606V35.413L22.498 35.339ZM21.691 34.606V35.413L20.737 34.606H21.691ZM21.691 35.413L20.737 34.606L21.03 35.633L21.691 35.413ZM20.737 34.606L21.03 35.633L19.783 34.827L20.737 34.607V34.606ZM21.03 35.633L19.783 34.827L20.37 36L21.03 35.633ZM19.783 34.827L20.37 36L18.902 35.267L19.783 34.827ZM20.37 36L18.902 35.267L19.856 36.44L20.369 36H20.37ZM18.902 35.267L19.856 36.44L18.095 35.853L18.901 35.266L18.902 35.267ZM19.856 36.44L18.095 35.853L19.489 36.953L19.856 36.44ZM18.095 35.853L19.489 36.953L17.434 36.66L18.095 35.853ZM19.489 36.953L17.434 36.66L19.195 37.614L19.489 36.953Z" fill="#E5A127"/>
<path id="Path 69" d="M25.726 38.86L24.405 38.493L25.799 37.98L25.726 38.86ZM24.405 38.493L25.799 37.98H24.478L24.405 38.493ZM25.799 37.98H24.478L25.652 37.173L25.799 37.98ZM24.478 37.98L25.652 37.173L24.478 37.393V37.98ZM25.652 37.173L24.478 37.393L25.285 36.366L25.652 37.173ZM24.478 37.393L25.285 36.366L24.331 36.879L24.477 37.392L24.478 37.393ZM25.285 36.366L24.331 36.879L24.771 35.705L25.285 36.366ZM24.331 36.879L24.771 35.705L24.037 36.366L24.331 36.879ZM24.771 35.705L24.037 36.366L24.11 35.192L24.771 35.705ZM24.037 36.366L24.11 35.192L23.67 35.926L24.037 36.366ZM24.11 35.192L23.67 35.926L23.377 34.899L24.11 35.192ZM23.67 35.926L23.377 34.899L23.083 35.559L23.67 35.926ZM23.377 34.899L23.083 35.559L22.57 34.752L23.377 34.899ZM23.083 35.559L22.57 34.752L22.497 35.339L23.084 35.559H23.083Z" fill="#E5A127"/>
<path id="Path 70" d="M21.324 40.768L21.984 41.061V40.841L21.324 40.768ZM21.984 41.061V40.841L22.718 41.208L21.984 41.061ZM21.984 40.841L22.718 41.208V40.768L21.984 40.841ZM22.718 41.208V40.768L23.525 41.135L22.718 41.208ZM22.718 40.768L23.525 41.135L23.304 40.548L22.718 40.768ZM23.525 41.135L23.304 40.548L24.258 40.768L23.525 41.135ZM23.304 40.548L24.258 40.768L23.745 40.181L23.304 40.548ZM24.258 40.768L23.745 40.181L24.919 40.327L24.258 40.768ZM23.745 40.181L24.919 40.327L24.112 39.666L23.746 40.18L23.745 40.181ZM24.919 40.327L24.112 39.666L25.433 39.593L24.92 40.327H24.919ZM24.112 39.666L25.433 39.593L24.333 39.153L24.113 39.666H24.112ZM25.433 39.593L24.333 39.153L25.727 38.786L25.433 39.593ZM24.333 39.153L25.727 38.786L24.333 38.64V39.153Z" fill="#E5A127"/>
<path id="Path 71" d="M28.9541 28.001L31.4491 28.588L30.422 21.544L28.9541 28.001ZM31.4491 28.588L30.422 21.544L32.917 22.131L31.4491 28.588Z" fill="#E5A127"/>
<path id="Path 72" d="M38.126 16.628V17.215L36.805 16.555L38.126 16.628ZM38.126 17.215L36.805 16.555L36.952 17.435L38.126 17.215ZM36.805 16.555L36.952 17.435L35.484 16.774L36.805 16.554V16.555ZM36.952 17.435L35.484 16.774L35.851 17.874L36.951 17.434L36.952 17.435ZM35.484 16.774L35.851 17.874L34.163 17.213L35.484 16.773V16.774ZM35.851 17.874L34.163 17.213L34.897 18.46L35.851 17.873V17.874ZM34.163 17.213L34.897 18.46L32.916 17.947L34.163 17.213ZM34.897 18.46L32.916 17.947L34.095 19.27L34.902 18.463L34.897 18.46ZM32.916 17.947L34.095 19.27L31.895 18.976L32.923 17.949L32.916 17.947ZM34.095 19.27L31.895 18.976L33.509 20.15L34.096 19.27H34.095ZM31.895 18.976L33.509 20.15L31.014 20.223L31.895 18.976ZM33.509 20.15L31.014 20.223L33.142 21.103L33.509 20.15ZM31.014 20.223L33.142 21.103L30.427 21.543L31.014 20.222V20.223ZM33.142 21.103L30.427 21.543L32.922 22.13L33.142 21.103Z" fill="#E5A127"/>
<path id="Path 73" d="M40.2541 17.289L39.8871 17.803L39.227 16.849L40.2541 17.289ZM39.8871 17.803L39.227 16.849L39.007 17.363L39.8871 17.803ZM39.227 16.849L39.007 17.363L38.127 16.629L39.227 16.849ZM39.007 17.363L38.127 16.629V17.216L39.007 17.363Z" fill="#E5A127"/>
<path id="Path 74" d="M42.088 23.673L40.4001 22.646H42.528L42.088 23.673ZM40.4001 22.646H42.528L40.841 22.059L40.4001 22.646ZM42.528 22.646L40.841 22.059L42.601 21.546L42.528 22.646ZM40.841 22.059L42.601 21.546L41.061 21.399L40.841 22.059ZM42.601 21.546L41.061 21.399L42.528 20.519L42.601 21.546ZM41.061 21.399L42.528 20.519L41.134 20.665L41.061 21.399ZM42.528 20.519L41.134 20.665L42.234 19.491L42.527 20.519H42.528ZM41.134 20.665L42.234 19.491L41.134 19.858V20.663V20.665ZM42.234 19.491L41.134 19.858L41.721 18.611L42.234 19.491ZM41.134 19.858L41.721 18.611L40.841 19.124L41.134 19.857V19.858ZM41.721 18.611L40.841 19.124L41.061 17.877L41.721 18.611ZM40.841 19.124L41.061 17.877L40.474 18.39L40.841 19.124ZM41.061 17.877L40.474 18.39L40.2541 17.29L41.061 17.877ZM40.474 18.39L40.2541 17.29L39.8871 17.804L40.474 18.39Z" fill="#E5A127"/>
<path id="Path 75" d="M37.024 25.584L37.097 24.997L37.904 25.731L37.024 25.584ZM37.097 24.997L37.904 25.731V24.924L37.097 24.997ZM37.904 25.731V24.924L38.858 25.731H37.904ZM37.904 24.924L38.858 25.731L38.564 24.704L37.904 24.924ZM38.858 25.731L38.564 24.704L39.811 25.511L38.858 25.731ZM38.564 24.704L39.811 25.511L39.224 24.337L38.563 24.705L38.564 24.704ZM39.811 25.511L39.224 24.337L40.691 25.071L39.811 25.511ZM39.224 24.337L40.691 25.071L39.737 23.898L39.224 24.337ZM40.691 25.071L39.737 23.898L41.498 24.411L40.691 25.071ZM39.737 23.898L41.498 24.411L40.104 23.311L39.737 23.898ZM41.498 24.411L40.104 23.311L42.158 23.605L41.498 24.412V24.411ZM40.104 23.311L42.158 23.605L40.397 22.725L40.104 23.311Z" fill="#E5A127"/>
<path id="Path 76" d="M33.871 21.471L35.264 21.838L33.797 22.351L33.871 21.471ZM35.264 21.838L33.797 22.351H35.118L35.264 21.838ZM33.797 22.351H35.118L33.944 23.158L33.797 22.351ZM35.118 22.351L33.944 23.158L35.118 22.938V22.351ZM33.944 23.158L35.118 22.938L34.311 23.965L33.944 23.158ZM35.118 22.938L34.311 23.965L35.264 23.452L35.118 22.938ZM34.311 23.965L35.264 23.452L34.825 24.625L34.312 23.964L34.311 23.965ZM35.264 23.452L34.825 24.625L35.559 23.964L35.265 23.451L35.264 23.452ZM34.825 24.625L35.559 23.964L35.485 25.138L34.825 24.625ZM35.559 23.964L35.485 25.138L35.999 24.405L35.559 23.964ZM35.485 25.138L35.999 24.405L36.219 25.432L35.485 25.138ZM35.999 24.405L36.219 25.432L36.512 24.771L35.999 24.405ZM36.219 25.432L36.512 24.771L37.026 25.578L36.219 25.432ZM36.512 24.771L37.026 25.578L37.099 24.991L36.512 24.771Z" fill="#E5A127"/>
<path id="Path 77" d="M38.273 19.563L37.612 19.269V19.416L38.273 19.563ZM37.612 19.269V19.416L36.878 19.123L37.612 19.269ZM37.612 19.416L36.878 19.123L36.952 19.563L37.612 19.416ZM36.878 19.123L36.952 19.563L36.072 19.196L36.878 19.123ZM36.952 19.563L36.072 19.196L36.292 19.783L36.952 19.563ZM36.072 19.196L36.292 19.783L35.338 19.489L36.072 19.196ZM36.292 19.783L35.338 19.489L35.851 20.15L36.292 19.783ZM35.338 19.489L35.851 20.15L34.677 20.004L35.338 19.49V19.489ZM35.851 20.15L34.677 20.004L35.484 20.664L35.851 20.151V20.15ZM34.677 20.004L35.484 20.664L34.163 20.737L34.677 20.004ZM35.484 20.664L34.163 20.737L35.263 21.177L35.484 20.664ZM34.163 20.737L35.263 21.177L33.87 21.544L34.163 20.737ZM35.263 21.177L33.87 21.544L35.263 21.691V21.177Z" fill="#E5A127"/>
<path id="Path 78" d="M27.781 53.461L26.167 52.507L24.553 51.773L22.792 51.186L20.958 50.892L19.124 50.745L17.363 50.818L15.529 51.112V49.644M27.782 10.61L29.543 10.904L31.377 11.051L33.211 10.978L34.972 10.684L36.733 10.171L38.421 9.51099L40.035 8.55699M40.035 8.631L40.548 9.952M20.664 13.18L22.499 12.813L24.259 12.373L25.947 11.64L27.487 10.759L28.954 9.659L30.348 8.41199L31.522 7.09099L32.476 8.19099M14.867 18.023L16.408 17.143L17.948 16.043L19.269 14.796L20.442 13.476L21.469 11.935L22.349 10.321L23.01 8.63399M23.01 8.56L24.257 9.29399M54.857 26.904L55.151 28.518L55.591 30.132L56.252 31.672L57.132 33.067L58.159 34.314L59.333 35.488L60.58 36.515L62.047 37.322M62.047 37.469L60.506 37.762L59.039 38.202L57.572 38.863L56.251 39.669L55.004 40.623M51.924 24.553V26.387L52.144 28.221L52.511 29.983L53.172 31.743L53.979 33.357L54.933 34.898L56.033 36.292M56.106 36.365L54.859 37.099M51.777 19.269L52.584 20.736L53.538 22.057L54.712 23.231L55.959 24.259L57.426 25.139L58.894 25.8L60.435 26.313L62.049 26.607M62.049 26.68L60.655 27.487L59.408 28.367L58.308 29.467L57.28 30.714L56.473 32.035M48.255 18.021L48.842 19.782L49.649 21.396L50.676 22.936L51.776 24.33L53.097 25.651L54.564 26.751L56.104 27.705M56.031 27.705L55.151 28.805M51.996 39.517L50.822 40.911L49.795 42.379L48.988 43.993L48.328 45.753L47.888 47.514L47.668 49.276L47.595 51.11M47.522 51.11L46.054 50.89M55.154 35.19L54.86 36.804L54.787 38.492L54.934 40.106L55.227 41.72L55.74 43.334L56.401 44.801L57.355 46.195L58.383 47.442M58.383 47.589L56.769 47.296L55.228 47.223L53.688 47.296L52.147 47.589L50.607 48.103M53.248 32.034L52.661 33.722L52.221 35.483L52.001 37.317L51.928 39.151L52.148 40.912L52.515 42.747L53.102 44.434M53.102 44.507L51.707 44.801M46.131 13.101L47.378 14.201L48.773 15.082L50.24 15.815L51.854 16.402L53.468 16.696L55.082 16.843L56.696 16.77L58.384 16.477M58.384 16.55L57.356 17.724L56.549 19.044L55.815 20.512L55.302 21.979L54.935 23.52M22.504 9.87199L24.044 9.35899L25.511 8.62599L26.906 7.672L28.153 6.57199L29.253 5.39799L30.133 4.004L30.94 2.53699L31.527 0.995987L32.114 2.46399L32.774 3.85799L33.654 5.17899L34.681 6.353L35.855 7.45299M15.455 14.353L16.702 13.325L17.876 12.078L18.83 10.757L19.637 9.36299L20.224 7.823L20.664 6.209L20.885 4.59499V2.90799M20.958 2.90799L21.985 4.08099L23.159 5.181L24.406 6.06099L25.8 6.868L27.195 7.45499M30.57 8.189H32.258L33.872 7.96899L35.486 7.603L37.027 7.01599L38.421 6.209L39.815 5.25499L40.989 4.155L42.089 2.90799M42.162 2.90799V4.52199L42.382 6.06299L42.749 7.60399L43.336 9.071L43.997 10.465" stroke="#E5A127" stroke-width="0.216" stroke-linecap="round" stroke-linejoin="bevel"/>
</g>
</svg>
